<svg width="37" height="22" viewBox="0 0 37 22" fill="none" xmlns="http://www.w3.org/2000/svg">
<g clip-path="url(#clip0)">
<path d="M0 0V1V12V13V21V21.7V22H37V21.7V21V1V0.1V0H0V0ZM36 21H1V15.3V13V12V11.5V10.2V8.2V7.2V5.2V4.3V3V1.8V1H2.5H4.3H7.4H8.4H10.4H11.3H14.5H16.4H18H19H19.9H36V21Z" fill="#CCCCCC"/>
<path d="M17.8 4.8001L18.5 4.3001L19.2001 4.8001L18.9 3.9001L19.7001 3.4001H18.8L18.5 2.6001L18.2001 3.4001H17.3L18.1 3.9001L17.8 4.8001Z" fill="#CCCCCC"/>
<path d="M14.1 5.8001L14.8 5.2001L15.6 5.8001L15.3 4.9001L16 4.4001H15.1L14.8 3.6001L14.6 4.4001H13.7L14.4 4.9001L14.1 5.8001Z" fill="#CCCCCC"/>
<path d="M12.2 6.2002L11.9 7.1002H11L11.7 7.6002L11.5 8.4002L12.2 7.9002L12.9 8.4002L12.6 7.6002L13.3 7.1002H12.4L12.2 6.2002Z" fill="#CCCCCC"/>
<path d="M11.2 11.5999L11.9 12.0999L11.6 11.2999L12.3 10.6999H11.5L11.2 9.8999L10.9 10.6999H10L10.7 11.2999L10.5 12.0999L11.2 11.5999Z" fill="#CCCCCC"/>
<path d="M12.4 14.4001L12.2 13.6001L11.9 14.4001H11L11.7 14.9001L11.5 15.8001L12.2 15.2001L12.9 15.8001L12.6 14.9001L13.3 14.4001H12.4Z" fill="#CCCCCC"/>
<path d="M15.1 17.1003L14.8 16.3003L14.6 17.1003H13.7L14.4 17.6003L14.1 18.4003L14.8 17.9003L15.6 18.4003L15.3 17.6003L16 17.1003H15.1Z" fill="#CCCCCC"/>
<path d="M18.8 18.1002L18.5 17.2002L18.2001 18.1002H17.3L18.1 18.6002L17.8 19.4002L18.5 18.9002L19.2001 19.4002L18.9 18.6002L19.7001 18.1002H18.8Z" fill="#CCCCCC"/>
<path d="M22.4 17.1003L22.2 16.3003L21.9 17.1003H21L21.7 17.6003L21.5 18.4003L22.2 17.9003L22.9 18.4003L22.6 17.6003L23.3 17.1003H22.4Z" fill="#CCCCCC"/>
<path d="M25.1 14.4001L24.7999 13.6001L24.6 14.4001H23.7L24.4 14.9001L24.1 15.8001L24.7999 15.2001L25.6 15.8001L25.2999 14.9001L26 14.4001H25.1Z" fill="#CCCCCC"/>
<path d="M27 10.6999H26.1L25.7999 9.8999L25.5 10.6999H24.7L25.4 11.2999L25.1 12.0999L25.7999 11.5999L26.5 12.0999L26.2999 11.2999L27 10.6999Z" fill="#CCCCCC"/>
<path d="M24.1 8.4002L24.7999 7.9002L25.6 8.4002L25.2999 7.6002L26 7.1002H25.1L24.7999 6.2002L24.6 7.1002H23.7L24.4 7.6002L24.1 8.4002Z" fill="#CCCCCC"/>
<path d="M22.2 3.6001L21.9 4.4001H21L21.7 4.9001L21.5 5.8001L22.2 5.2001L22.9 5.8001L22.6 4.9001L23.3 4.4001H22.4L22.2 3.6001Z" fill="#CCCCCC"/>
</g>
<defs>
<clipPath id="clip0">
<rect width="37" height="22" fill="white"/>
</clipPath>
</defs>
</svg>
