<svg width="37" height="22" viewBox="0 0 37 22" fill="none" xmlns="http://www.w3.org/2000/svg">
<path d="M7.49998 7.6L9.69998 6H6.99998L6.19998 3.5L5.29998 6H2.59998L4.79998 7.6L3.99998 10.2L6.19998 8.6L8.29998 10.2L7.49998 7.6Z" fill="white"/>
<path d="M12.7 3.7998L13.6 3.5998L12.7 3.1998L12.8 2.2998L12.2 2.9998L11.4 2.6998L11.9 3.3998L11.3 4.0998L12.1 3.8998L12.6 4.6998L12.7 3.7998Z" fill="white"/>
<path d="M15 6.3998L15.9 6.4998L15.3 5.8998L15.7 5.0998L14.9 5.4998L14.3 4.7998L14.4 5.6998L13.6 6.0998L14.5 6.2998L14.6 7.0998L15 6.3998Z" fill="white"/>
<path d="M15.3 9.7999L16 9.1999H15.1L14.8 8.3999L14.5 9.2999H13.6L14.4 9.7999L14.1 10.6999L14.8 10.0999L15.6 10.5999L15.3 9.7999Z" fill="white"/>
<path d="M12.7 12.3999L13.6 12.1999L12.7 11.7999L12.8 10.8999L12.2 11.5999L11.4 11.2999L11.9 12.0999L11.3 12.7999L12.2 12.4999L12.7 13.2999V12.3999Z" fill="white"/>
<path d="M0 0V1V12V13V21V21.7V22H37V21.7V21V1V0.1V0H0ZM36 21H1V15.3V13V12V11.5V10.2V8.2V7.2V5.2V4.3V3V1.8V1H2.5H4.3H7.4H8.4H10.4H11.3H14.5H16.4H18H19H19.9H36V21Z" fill="white"/>
</svg>
