<svg width="37" height="22" viewBox="0 0 37 22" fill="none" xmlns="http://www.w3.org/2000/svg">
<g clip-path="url(#clip0)">
<path d="M0 0H37V1H0V0ZM0 21H37V22H0V21Z" fill="white"/>
<path d="M0 0H1V22H0V0ZM36 0H37V22H36V0Z" fill="white"/>
<path d="M18 0H19V13H18V0Z" fill="white"/>
<path d="M0 12H19V13H0V12Z" fill="white"/>
<path d="M7.39998 0.200195V4.4002H0.0999756V5.2002H8.19998V0.200195C8.19998 0.200195 7.39998 0.200195 7.39998 0.200195Z" fill="white"/>
<path d="M8.3 5.2H0V4.2H7.3V0H8.4V5.2H8.3ZM0.2 5H8.1V0.3H7.5V4.5H0.2V5Z" fill="white"/>
<path d="M10.3 0.200195V5.2002H18.8V4.3002H11.2V0.200195H10.3Z" fill="white"/>
<path d="M18.9 5.2H10.2V0H11.3V4.2H18.9V5.2ZM10.5 5H18.7V4.4H11V0.3H10.4V5H10.5Z" fill="white"/>
<path d="M0.299988 7.2998V8.0998H7.39999V12.6998H8.19999V7.2998H0.299988Z" fill="white"/>
<path d="M8.30001 12.9002H7.30001V8.3002H0.200012V7.2002H8.40001L8.30001 12.9002ZM7.60001 12.6002H8.10001V7.5002H0.400012V8.0002H7.50001L7.60001 12.6002Z" fill="white"/>
<path d="M10.3 7.2998V12.6998H11.1V8.0998H18.6V7.2998H10.3Z" fill="white"/>
<path d="M11.2 12.9002H10.2V7.2002H18.8V8.3002H11.3L11.2 12.9002ZM10.5 12.6002H11V8.0002H18.5V7.5002H10.4V12.6002H10.5Z" fill="white"/>
<path d="M0.599976 1.3999L0.0999756 2.0999L4.19998 4.9999L4.69998 4.2999L0.599976 1.3999Z" fill="white"/>
<path d="M4.20002 5.1998L-0.0999756 2.1998L0.500024 1.2998L0.600024 1.3998L4.80002 4.2998L4.20002 5.1998ZM0.300024 2.0998L4.20002 4.7998L4.50002 4.2998L0.600024 1.5998L0.300024 2.0998Z" fill="white"/>
<path d="M3.20001 0.200195L2.70001 0.800195L7.30001 4.3002L7.80001 3.6002L3.20001 0.200195Z" fill="white"/>
<path d="M7.39998 4.5L2.59998 0.8L3.19998 0L7.99998 3.7L7.39998 4.5ZM2.89998 0.8L7.29998 4.2L7.59998 3.7L3.19998 0.3L2.89998 0.8Z" fill="white"/>
<path d="M18.2 1.2998L14 4.2998L14.4 4.9998L18.6 1.9998L18.2 1.2998Z" fill="white"/>
<path d="M14.4 5.2001L13.8 4.3001L13.9 4.2001L18.2 1.1001L18.8 2.0001L14.4 5.2001ZM14.1 4.3001L14.4 4.8001L18.4 2.0001L18.1 1.5001L14.1 4.3001Z" fill="white"/>
<path d="M15.7 0.100098L10.7 3.8001L11.2 4.5001L16.2 0.800098L15.7 0.100098Z" fill="white"/>
<path d="M11.1 4.5999L10.5 3.6999L15.7 -0.100098L16.3 0.799902L11.1 4.5999ZM10.8 3.7999L11.1 4.2999L16 0.699902L15.7 0.199902L10.8 3.7999Z" fill="white"/>
<path d="M4.09998 7.3999L0.0999756 10.1999L0.599976 10.8999L4.59998 8.0999L4.09998 7.3999Z" fill="white"/>
<path d="M0.6 11.1002L0 10.2002L4.2 7.2002L4.8 8.1002L4.6 8.2002L0.6 11.1002ZM0.3 10.3002L0.6 10.8002L4.4 8.1002L4 7.6002L0.3 10.3002Z" fill="white"/>
<path d="M7.4 8L2 12L2.5 12.7L7.9 8.7L7.4 8Z" fill="white"/>
<path d="M2.39999 12.8998L1.79999 11.9998L7.39999 7.7998L7.99999 8.6998L7.89999 8.7998L2.39999 12.8998ZM2.09999 12.0998L2.39999 12.5998L7.59999 8.6998L7.29999 8.1998L2.09999 12.0998Z" fill="white"/>
<path d="M14.2 7.3999L13.7 8.0999L18.3 11.2999L18.8 10.5999L14.2 7.3999Z" fill="white"/>
<path d="M18.3 11.5002L18.2 11.4002L13.5 8.1002L14.1 7.2002L14.2 7.3002L18.9 10.6002L18.3 11.5002ZM13.9 8.0002L18.3 11.1002L18.6 10.6002L14.2 7.5002L13.9 8.0002Z" fill="white"/>
<path d="M11.1 8L10.6 8.7L15.8 12.7L16.3 12L11.1 8Z" fill="white"/>
<path d="M15.9 12.7998L10.5 8.6998L11.2 7.7998L11.3 7.8998L16.6 11.9998L15.9 12.7998ZM10.8 8.5998L15.8 12.3998L16.1 11.8998L11.1 8.0998L10.8 8.5998Z" fill="white"/>
<path d="M10.7 20.0999L9.3 18.6999L7.8 20.0999L8 18.0999L6 17.7999L7.7 16.7999L6.7 15.0999L8.6 15.7999L9.3 13.8999L9.9 15.7999L11.8 15.1999L10.7 16.8999L12.4 17.9999L10.4 18.1999L10.7 20.0999Z" fill="white"/>
<path d="M24 11.1L23.3 10.4L22.6 11.1L22.7 10.1L21.7 10L22.5 9.5L22 8.7L23 8.9L23.4 8L23.7 8.9L24.6 8.6L24.1 9.4L24.9 9.9L23.9 10L24 11.1Z" fill="white"/>
<path d="M29.5 5.0001L28.9 4.4001L28.2 5.0001L28.3 4.1001L27.4 4.0001L28.2 3.5001L27.7 2.7001L28.5 3.0001L28.8 2.1001L29.1 3.0001L30 2.7001L29.5 3.5001L30.3 4.0001L29.4 4.1001L29.5 5.0001Z" fill="white"/>
<path d="M29.5 19.7002L28.9 19.0002L28.2 19.7002L28.3 18.7002L27.3 18.6002L28.1 18.1002L27.6 17.3002L28.5 17.6002L28.8 16.7002L29.1 17.6002L30 17.3002L29.5 18.1002L30.3 18.6002L29.3 18.7002L29.5 19.7002Z" fill="white"/>
<path d="M31.6 12.7L31 12.3L30.4 12.7L30.6 12.1L30 11.7H30.7L31 11L31.2 11.6H32L31.4 12L31.6 12.7Z" fill="white"/>
<path d="M34.4 9.5001L33.8 8.9001L33.1 9.5001L33.2 8.6001L32.3 8.5001L33 8.0001L32.5 7.2001L33.4 7.5001L33.7 6.6001L34 7.5001L34.9 7.2001L34.4 8.0001L35.2 8.5001L34.3 8.6001L34.4 9.5001Z" fill="white"/>
</g>
<defs>
<clipPath id="clip0">
<rect width="37" height="22" fill="white"/>
</clipPath>
</defs>
</svg>
