<svg width="37" height="22" viewBox="0 0 37 22" fill="none" xmlns="http://www.w3.org/2000/svg">
<path d="M27.48 3.15L28.05 5H30L28.46 6.16L29 8L27.48 6.83L26 7.93L26.56 6.16L25 5H26.89L27.48 3.15ZM27.48 14.15L28.05 16H30L28.47 17.14L29 19L27.46 17.86L26 18.94L26.56 17.17L25 16H26.89L27.48 14.15ZM23.48 7.15L24.05 9H26L24.47 10.14L25 12L23.47 10.86L22 12L22.57 10.23L21 9H22.89L23.48 7.15ZM31.48 7.15L32.05 9H34L32.46 10.14L33 12L31.46 10.86L30 12L30.56 10.23L29 9H30.89L31.48 7.15ZM0 0H37V1H0V0ZM0 21H37V22H0V21Z" fill="white"/>
<path d="M0 0H1V22H0V0ZM36 0H37V22H36V0Z" fill="white"/>
<path d="M0 12H19V13H0V12Z" fill="white"/>
<path d="M18.05 0.0498047H19.05V13.0498H18.05V0.0498047Z" fill="white"/>
<path d="M0.0499878 12.0498H19.05V13.0498H0.0499878V12.0498Z" fill="white"/>
<path d="M7.45002 0.25V4.45H0.150024V5.25H8.25002V0.25H7.45002Z" fill="white"/>
<path d="M8.34999 5.2498H0.0499878V4.2498H7.34999V0.0498047H8.44999V5.2498H8.34999ZM0.249988 5.0498H8.14999V0.349805H7.54999V4.5498H0.249988V5.0498Z" fill="white"/>
<path d="M10.35 0.25V5.25H18.85V4.35H11.25V0.25H10.35Z" fill="white"/>
<path d="M19 5.2498H10.3V0.0498047H11.4V4.2498H19V5.2498ZM10.6 5.0498H18.8V4.4498H11.1V0.349805H10.5V5.0498H10.6Z" fill="white"/>
<path d="M0.349976 7.3501V8.1501H7.44998V12.7501H8.24998V7.3501H0.349976Z" fill="white"/>
<path d="M8.35 13H7.35V8.35H0.25V7.25H8.45L8.35 13ZM7.65 12.7H8.15V7.55H0.45V8.05H7.55L7.65 12.65V12.7Z" fill="white"/>
<path d="M10.35 7.3501V12.7501H11.15V8.1501H18.65V7.3501H10.35Z" fill="white"/>
<path d="M11.25 13H10.25V7.25H18.85V8.35H11.35L11.25 12.95V13ZM10.55 12.7H11.05V8.05H18.55V7.55H10.45V12.65L10.55 12.7Z" fill="white"/>
<path d="M0.650024 1.4502L0.150024 2.1502L4.25002 5.0502L4.75002 4.3502L0.650024 1.4502Z" fill="white"/>
<path d="M4.25 5.2501L0 2.2501L0.6 1.3501L0.7 1.4501L4.9 4.3501L4.25 5.2501ZM0.35 2.1501L4.25 4.8501L4.55 4.3501L0.65 1.6501L0.35 2.1501Z" fill="white"/>
<path d="M3.25 0.25L2.75 0.85L7.35 4.35L7.85 3.65L3.25 0.25Z" fill="white"/>
<path d="M7.45002 4.5498L2.65002 0.849805L3.25002 0.0498047L8.05002 3.7498L7.45002 4.5498ZM3.00002 0.849805L7.40002 4.2498L7.70002 3.7498L3.25002 0.349805L3.00002 0.849805Z" fill="white"/>
<path d="M18.25 1.3501L14.05 4.3501L14.45 5.0501L18.65 2.0501L18.25 1.3501Z" fill="white"/>
<path d="M14.45 5.2499L13.85 4.3499L13.95 4.2499L18.25 1.1499L18.85 2.0499L14.45 5.2499ZM14.15 4.3499L14.45 4.8499L18.45 2.0499L18.15 1.5499L14.15 4.3499Z" fill="white"/>
<path d="M15.75 0.149902L10.75 3.8499L11.25 4.5499L16.25 0.849902L15.75 0.149902Z" fill="white"/>
<path d="M11.15 4.65L10.55 3.75L15.75 0L16.35 0.9L11.15 4.65ZM10.85 3.85L11.15 4.35L16.05 0.75L15.75 0.25L10.85 3.85Z" fill="white"/>
<path d="M4.15002 7.4502L0.150024 10.2502L0.650024 10.9502L4.65002 8.1502L4.15002 7.4502Z" fill="white"/>
<path d="M0.649988 11.15L0.0499878 10.25L4.24999 7.25L4.84999 8.15L4.64999 8.25L0.649988 11.15ZM0.349988 10.35L0.649988 10.85L4.44999 8.15L4.04999 7.65L0.349988 10.35Z" fill="white"/>
<path d="M7.44999 8.0498L2.04999 12.0498L2.54999 12.7498L7.94999 8.7498L7.44999 8.0498Z" fill="white"/>
<path d="M2.44998 12.9999L1.84998 12.0999L7.44998 7.8999L8.04998 8.7999L7.94998 8.8999L2.44998 12.9999ZM2.14998 12.1999L2.44998 12.6999L7.64998 8.7999L7.34998 8.2999L2.14998 12.1999Z" fill="white"/>
<path d="M14.25 7.4502L13.75 8.1502L18.35 11.3502L18.85 10.6502L14.25 7.4502Z" fill="white"/>
<path d="M18.35 11.55L18.25 11.45L13.55 8.15L14.15 7.25L14.25 7.35L18.95 10.65L18.35 11.55ZM14 8.05L18.4 11.15L18.7 10.65L14.3 7.55L14 8.05Z" fill="white"/>
<path d="M11.15 8.0498L10.65 8.7498L15.85 12.7498L16.35 12.0498L11.15 8.0498Z" fill="white"/>
<path d="M16 12.8501L10.6 8.7501L11.3 7.8501L11.4 7.9501L16.7 12.0501L16 12.8501ZM10.9 8.6501L15.9 12.4501L16.2 11.9501L11.2 8.1501L10.9 8.6501Z" fill="white"/>
</svg>
